<svg width="232" height="247" viewBox="0 0 232 247" fill="none" xmlns="http://www.w3.org/2000/svg">
<path d="M119.075 0.553421C214.275 -2.24658 233.409 105.72 231.075 160.053C226.575 188.72 219.175 246.053 225.575 246.053H0.575458C4.97546 214.853 2.40879 174.053 0.575455 157.553C5.07545 116.053 0.0754547 4.05342 119.075 0.553421Z" fill="#9E6A7C" stroke="#9E6A7C"/>
<path d="M74.0755 198.553C111.275 209.753 145.909 203.887 158.575 199.553C155.575 207.053 137.575 217.553 111.575 217.553C90.7755 217.553 77.9088 204.887 74.0755 198.553Z" fill="#824B62"/>
<path d="M45.5755 61.5534C62.7755 51.9534 82.4088 51.2201 90.0755 52.0534C91.4088 48.3868 93.0755 40.4534 89.0755 38.0534C84.0755 35.0534 79.5755 36.0534 68.5755 38.0534C59.7755 39.6534 50.5755 48.0534 47.0755 52.0534C41.4755 56.0534 43.7421 60.0534 45.5755 61.5534Z" fill="#533243" fill-opacity="0.84" stroke="#3D1027"/>
<path d="M185.083 61.4468C167.883 51.8468 148.25 51.1135 140.583 51.9468C139.25 48.2801 137.583 40.3468 141.583 37.9468C146.583 34.9468 151.083 35.9468 162.083 37.9468C170.883 39.5468 180.083 47.9468 183.583 51.9468C189.183 55.9468 186.916 59.9468 185.083 61.4468Z" fill="#533243" fill-opacity="0.84" stroke="#3D1027"/>
<path d="M137.075 139.053C136.939 139.113 136.799 139.174 136.656 139.234M92.5755 137.053C107.92 147.283 128.07 142.871 136.656 139.234M93.5755 137.053C98.6292 140.507 114.321 145.779 136.656 139.234" stroke="#441B2D"/>
</svg>
