<svg width="232" height="253" viewBox="0 0 232 253" fill="none" xmlns="http://www.w3.org/2000/svg">
<path d="M119.004 0.553421C214.204 -2.24658 233.337 105.72 231.004 160.053C221.701 221.296 170.88 243.152 146.632 246.425C128.151 251.16 107.892 253.606 87.6324 251C62.2134 244.369 9.20123 216.396 0.503967 157.553C5.00397 116.053 0.00396729 4.05342 119.004 0.553421Z" fill="#9E6A7C" stroke="#9E6A7C"/>
<path d="M74.004 198.553C111.204 209.753 145.837 203.887 158.504 199.553C155.504 207.053 137.504 217.553 111.504 217.553C90.704 217.553 77.8373 204.887 74.004 198.553Z" fill="#824B62"/>
<path d="M45.5039 61.5534C62.7039 51.9534 82.3373 51.2201 90.0039 52.0534C91.3373 48.3868 93.0039 40.4534 89.0039 38.0534C84.0039 35.0534 79.5039 36.0534 68.5039 38.0534C59.7039 39.6534 50.5039 48.0534 47.0039 52.0534C41.4039 56.0534 43.6706 60.0534 45.5039 61.5534Z" fill="#533243" fill-opacity="0.84" stroke="#3D1027"/>
<path d="M185.012 61.4468C167.812 51.8468 148.178 51.1135 140.512 51.9468C139.178 48.2801 137.512 40.3468 141.512 37.9468C146.512 34.9468 151.012 35.9468 162.012 37.9468C170.812 39.5468 180.012 47.9468 183.512 51.9468C189.112 55.9468 186.845 59.9468 185.012 61.4468Z" fill="#533243" fill-opacity="0.84" stroke="#3D1027"/>
</svg>
