<svg width="364" height="444" viewBox="0 0 364 444" fill="none" xmlns="http://www.w3.org/2000/svg">
<path d="M185.872 0.553421C281.072 -2.24658 300.205 105.72 297.872 160.053C293.372 188.72 285.972 246.053 292.372 246.053H67.3716C71.7716 214.853 69.2049 174.053 67.3716 157.553C71.8716 116.053 66.8716 4.05342 185.872 0.553421Z" fill="#9E6A7C" stroke="#9E6A7C"/>
<path d="M140.872 198.553C178.072 209.753 212.705 203.887 225.372 199.553C222.372 207.053 204.372 217.553 178.372 217.553C157.572 217.553 144.705 204.887 140.872 198.553Z" fill="#824B62"/>
<g filter="url(#filter0_d_2_32)">
<path d="M26.8716 376.553C-24.3284 340.953 24.2049 229.053 54.8716 177.553L85.3716 205.053L73.8716 231.053L67.3716 250.053L58.3716 310.053V331.053C55.9716 335.453 57.3716 345.887 58.3716 350.553C60.8716 362.053 54.3716 368.053 49.3716 367.053C45.3716 366.253 42.7049 361.387 41.8716 359.053C41.0716 357.853 43.2049 367.22 44.3716 372.053C43.5382 374.72 41.0716 380.253 37.8716 381.053C34.6716 381.853 29.2049 378.387 26.8716 376.553Z" fill="#9E6A7C"/>
<path d="M26.8716 376.553C-24.3284 340.953 24.2049 229.053 54.8716 177.553L85.3716 205.053L73.8716 231.053L67.3716 250.053L58.3716 310.053V331.053C55.9716 335.453 57.3716 345.887 58.3716 350.553C60.8716 362.053 54.3716 368.053 49.3716 367.053C45.3716 366.253 42.7049 361.387 41.8716 359.053M26.8716 376.553C29.2049 378.387 34.6716 381.853 37.8716 381.053C41.0716 380.253 43.5382 374.72 44.3716 372.053C43.2049 367.22 41.0716 357.853 41.8716 359.053M26.8716 376.553C23.7049 372.387 17.6716 362.853 18.8716 358.053M41.8716 359.053L39.3716 353.553" stroke="#4F293E"/>
</g>
<path d="M18.5215 271.053C13.4487 295.838 7.14078 344.519 16.6304 364.946C18.5841 368.075 20.4862 370.475 22.0215 372.053C19.8311 370.437 18.0532 368.009 16.6304 364.946C10.9492 355.85 4.83093 340.603 6.0215 321.553C7.6215 295.953 13.0215 275.22 15.5215 268.053L18.5215 271.053Z" fill="#AD7689"/>
<path d="M41.8715 376.049C46.8716 373.053 41.0892 358.333 38.8715 354.053L38.2247 356.614C37.2669 361.9 35.2124 373.187 34.6573 376.049C34.1022 378.911 30.8424 377.868 28.8716 377.053C35.5714 383.274 40.3716 380.553 41.8715 376.049Z" fill="#814B63"/>
<path d="M16.8716 261.053L14.3716 269.553C17.5716 267.953 40.7049 284.553 51.8716 293.053C50.3716 293.553 48.8716 331.053 49.8716 336.053C50.6716 340.053 51.8716 353.053 52.3716 359.053L50.8716 365.553H48.8716L47.3716 364.553L46.3716 363.053L44.3716 361.053L42.3716 357.553L39.3716 354.053L41.8716 358.053L43.8716 362.053L46.8716 365.553L49.8716 367.053L52.3716 366.553L54.8716 365.053L57.3716 362.053L58.8716 359.053L58.3716 352.553L56.8716 337.553L58.3716 331.553L63.8716 286.053L16.8716 261.053Z" fill="#814B63"/>
<g filter="url(#filter1_d_2_32)">
<path d="M336.372 376.053C387.572 340.453 339.038 228.553 308.372 177.053L277.872 204.553L289.372 230.553L295.872 249.553L304.872 309.553V330.553C307.272 334.953 305.872 345.387 304.872 350.053C302.372 361.553 308.872 367.553 313.872 366.553C317.872 365.753 320.538 360.887 321.372 358.553C322.172 357.353 320.038 366.72 318.872 371.553C319.705 374.22 322.172 379.753 325.372 380.553C328.572 381.353 334.038 377.887 336.372 376.053Z" fill="#9E6A7C"/>
<path d="M336.372 376.053C387.572 340.453 339.038 228.553 308.372 177.053L277.872 204.553L289.372 230.553L295.872 249.553L304.872 309.553V330.553C307.272 334.953 305.872 345.387 304.872 350.053C302.372 361.553 308.872 367.553 313.872 366.553C317.872 365.753 320.538 360.887 321.372 358.553M336.372 376.053C334.038 377.887 328.572 381.353 325.372 380.553C322.172 379.753 319.705 374.22 318.872 371.553C320.038 366.72 322.172 357.353 321.372 358.553M336.372 376.053C339.538 371.887 345.572 362.353 344.372 357.553M321.372 358.553L323.872 353.053" stroke="#4F293E"/>
</g>
<path d="M344.722 270.553C349.794 295.338 356.102 344.019 346.613 364.446C344.659 367.575 342.757 369.975 341.222 371.553C343.412 369.937 345.19 367.509 346.613 364.446C352.294 355.35 358.412 340.103 357.222 321.053C355.622 295.453 350.222 274.72 347.722 267.553L344.722 270.553Z" fill="#AD7689"/>
<path d="M321.372 375.549C316.372 372.553 322.154 357.833 324.372 353.553L325.018 356.114C325.976 361.4 328.031 372.687 328.586 375.549C329.141 378.411 332.401 377.368 334.372 376.553C327.672 382.774 322.872 380.053 321.372 375.549Z" fill="#814B63"/>
<path d="M346.372 260.553L348.872 269.053C345.672 267.453 322.538 284.053 311.372 292.553C312.872 293.053 314.372 330.553 313.372 335.553C312.572 339.553 311.372 352.553 310.872 358.553L312.372 365.053H314.372L315.872 364.053L316.872 362.553L318.872 360.553L320.872 357.053L323.872 353.553L321.372 357.553L319.372 361.553L316.372 365.053L313.372 366.553L310.872 366.053L308.372 364.553L305.872 361.553L304.372 358.553L304.872 352.053L306.372 337.053L304.872 331.053L299.372 285.553L346.372 260.553Z" fill="#814B63"/>
<path d="M158.872 431.053L161.872 400.553L88.8716 397.053L96.9751 423.553C92.0931 426.027 88.8716 430.036 88.8716 431.053C88.8716 432.553 84.3716 437.553 94.8716 441.053C105.372 444.553 139.872 443.053 149.372 440.553C156.972 438.553 158.872 433.387 158.872 431.053Z" fill="#9E6A7C"/>
<path d="M126.872 425.553C126.372 424.553 113.872 421.553 104.872 421.553C101.977 421.553 99.2895 422.381 96.9751 423.553M96.9751 423.553C92.0931 426.027 88.8716 430.036 88.8716 431.053C88.8716 432.553 84.3716 437.553 94.8716 441.053C105.372 444.553 139.872 443.053 149.372 440.553C156.972 438.553 158.872 433.387 158.872 431.053L161.872 400.553L88.8716 397.053L96.9751 423.553Z" stroke="#391224"/>
<path d="M93.8528 414.498L91.7879 408.053C106.655 411.49 143.753 411.276 160.444 410.739C161.993 413.424 157.863 434.368 156.831 437.054C156.005 439.202 149.604 440.455 146.507 440.813C146.162 442.603 145.887 443.82 147.539 434.368C149.191 424.917 145.818 421.837 143.926 421.479L93.8528 414.498Z" fill="#804C61" fill-opacity="0.25"/>
<path d="M94.3716 432.053C98.7716 427.653 106.872 424.553 110.372 423.553C110.538 423.22 110.072 422.653 106.872 423.053C102.872 423.553 94.3716 426.553 89.8716 432.053C85.3716 437.553 97.3716 442.553 94.3716 440.053C91.9716 438.053 93.3716 433.887 94.3716 432.053Z" fill="#C4899D" fill-opacity="0.39"/>
<path d="M205.872 431.053L202.872 400.553L275.872 397.053L267.768 423.553C272.65 426.027 275.872 430.036 275.872 431.053C275.872 432.553 280.372 437.553 269.872 441.053C259.372 444.553 224.872 443.053 215.372 440.553C207.772 438.553 205.872 433.387 205.872 431.053Z" fill="#9E6A7C"/>
<path d="M237.872 425.553C238.372 424.553 250.872 421.553 259.872 421.553C262.766 421.553 265.454 422.381 267.768 423.553M267.768 423.553C272.65 426.027 275.872 430.036 275.872 431.053C275.872 432.553 280.372 437.553 269.872 441.053C259.372 444.553 224.872 443.053 215.372 440.553C207.772 438.553 205.872 433.387 205.872 431.053L202.872 400.553L275.872 397.053L267.768 423.553Z" stroke="#391224"/>
<path d="M270.89 414.498L272.955 408.053C258.088 411.49 220.99 411.276 204.299 410.739C202.75 413.424 206.88 434.368 207.912 437.054C208.738 439.202 215.139 440.455 218.237 440.813C218.581 442.603 218.856 443.82 217.204 434.368C215.552 424.917 218.925 421.837 220.818 421.479L270.89 414.498Z" fill="#804C61" fill-opacity="0.25"/>
<path d="M270.372 432.053C265.972 427.653 257.872 424.553 254.372 423.553C254.205 423.22 254.672 422.653 257.872 423.053C261.872 423.553 270.372 426.553 274.872 432.053C279.372 437.553 267.372 442.553 270.372 440.053C272.772 438.053 271.372 433.887 270.372 432.053Z" fill="#C4899D" fill-opacity="0.39"/>
<path d="M112.372 61.5534C129.572 51.9534 149.205 51.2201 156.872 52.0534C158.205 48.3868 159.872 40.4534 155.872 38.0534C150.872 35.0534 146.372 36.0534 135.372 38.0534C126.572 39.6534 117.372 48.0534 113.872 52.0534C108.272 56.0534 110.538 60.0534 112.372 61.5534Z" fill="#533243" fill-opacity="0.84" stroke="#3D1027"/>
<path d="M251.879 61.4468C234.679 51.8468 215.046 51.1135 207.379 51.9468C206.046 48.2801 204.379 40.3468 208.379 37.9468C213.379 34.9468 217.879 35.9468 228.879 37.9468C237.679 39.5468 246.879 47.9468 250.379 51.9468C255.979 55.9468 253.713 59.9468 251.879 61.4468Z" fill="#533243" fill-opacity="0.84" stroke="#3D1027"/>
<path d="M136.863 72.0721C150.383 71.7914 161.572 82.5343 161.853 96.0682C162.134 109.602 151.401 120.8 137.881 121.081C124.361 121.362 113.172 110.619 112.891 97.085C112.61 83.5511 123.343 72.3529 136.863 72.0721Z" fill="#D9D9D9" stroke="#F6ECE2"/>
<path d="M144.102 83.8278C151.116 83.6824 156.941 89.3782 157.091 96.5736C157.24 103.769 151.657 109.702 144.642 109.848C137.627 109.993 131.801 104.297 131.652 97.1019C131.503 89.9064 137.087 83.9735 144.102 83.8278Z" fill="#40202F" stroke="#240C17"/>
<path d="M138.803 87.6347C140.706 87.5953 142.255 89.0581 142.293 90.8706C142.33 92.6832 140.844 94.209 138.94 94.2485C137.037 94.2881 135.488 92.8253 135.451 91.0127C135.413 89.2001 136.9 87.6743 138.803 87.6347Z" fill="#F7F3E8" stroke="#452334"/>
<path d="M122.872 75.5534C146.072 63.5534 158.872 81.3868 162.372 91.5534C161.538 87.5534 158.672 78.4534 153.872 74.0534C147.872 68.5534 133.372 64.5534 121.372 73.5534C111.772 80.7534 111.372 90.8868 112.372 95.0534C111.972 87.8534 118.372 79.5534 122.872 75.5534Z" fill="#441B2D"/>
<path d="M157.372 113.553C149.205 121.135 128.972 130.58 113.372 106.053" stroke="#441B2D"/>
<path d="M227.863 71.8856C241.383 71.6049 252.572 82.3478 252.853 95.8817C253.134 109.415 242.401 120.614 228.881 120.895C215.361 121.175 204.172 110.432 203.891 96.8985C203.61 83.3646 214.343 72.1664 227.863 71.8856Z" fill="#D9D9D9" stroke="#F6ECE2"/>
<path d="M221.102 82.8278C228.116 82.6824 233.941 88.3782 234.091 95.5736C234.24 102.769 228.657 108.702 221.642 108.848C214.627 108.993 208.801 103.297 208.652 96.1019C208.503 88.9064 214.087 82.9735 221.102 82.8278Z" fill="#40202F" stroke="#240C17"/>
<path d="M215.803 87.6347C217.706 87.5953 219.255 89.0581 219.293 90.8706C219.33 92.6832 217.844 94.209 215.94 94.2485C214.037 94.2881 212.488 92.8253 212.451 91.0127C212.413 89.2001 213.9 87.6743 215.803 87.6347Z" fill="#F7F3E8" stroke="#452334"/>
<path d="M213.872 75.3669C237.072 63.3669 249.872 81.2003 253.372 91.3669C252.538 87.3669 249.672 78.2669 244.872 73.8669C238.872 68.3669 224.372 64.3669 212.372 73.3669C202.772 80.5669 202.372 90.7003 203.372 94.8669C202.972 87.6669 209.372 79.3669 213.872 75.3669Z" fill="#441B2D"/>
<path d="M248.372 113.367C240.205 120.949 219.972 130.393 204.372 105.867" stroke="#441B2D"/>
<path d="M203.872 139.053C203.735 139.113 203.595 139.174 203.452 139.234M159.372 137.053C174.716 147.283 194.866 142.871 203.452 139.234M160.372 137.053C165.425 140.507 181.117 145.779 203.452 139.234" stroke="#441B2D"/>
<path d="M358.372 251.053L299.372 161.053C202.572 273.053 104.372 209.053 67.3716 163.053C46.8716 187.053 5.87157 237.953 5.87157 249.553C5.87157 261.153 42.2049 278.387 60.3716 285.553L58.3716 302.553L304.872 304.053L304.372 285.553C334.372 273.553 352.872 257.553 358.372 251.053Z" fill="#0B3948" stroke="#0B1923"/>
<path d="M275.872 197.553L287.372 174.553C192.972 254.553 106.372 209.053 77.3716 174.053L91.8716 196.553C163.872 256.953 247.372 221.887 275.872 197.553Z" fill="#0C3A48" stroke="#102334"/>
<path d="M312.372 177.053L299.872 160.553C291.872 160.553 255.872 227.553 238.872 261.053L245.872 275.053L261.872 271.553C259.072 258.753 294.372 203.22 312.372 177.053Z" fill="#8B6175" stroke="#3F2840"/>
<path d="M267.872 260.053C272.205 276.553 285.672 308.153 304.872 302.553C305.371 306.715 305.683 312.251 305.56 318.553C305.188 337.493 300.878 363.346 285.872 379.553L284.372 390.053L285.872 390.797C286.372 393.216 287.072 398.753 285.872 401.553C284.372 405.053 225.872 416.553 197.372 409.053C196.372 407.387 194.672 402.853 195.872 398.053C196.372 396.053 194.872 392.653 184.872 395.053H183.372H170.372C169.446 394.921 168.227 395.439 169.16 398.053C169.403 398.735 169.792 399.56 170.372 400.553C171.205 402.887 171.072 408.053 163.872 410.053C154.872 412.553 76.3716 410.553 79.3716 399.053C78.5382 395.887 77.6716 389.353 80.8716 388.553C80.4305 384.584 79.0558 376.725 76.8161 373.553C75.3346 372.387 73.0716 370.553 75.8716 372.553C69.3788 363.896 58.4727 343.01 57.3737 318.553C57.1185 312.876 57.3919 307.007 58.3716 301.053C66.7049 304.22 86.2716 300.553 97.8716 260.553C100.872 252.387 107.872 236.953 111.872 240.553C115.872 244.153 120.872 248.053 122.872 249.553C149.872 253.387 211.572 258.753 242.372 249.553C273.172 240.353 272.205 252.72 267.872 260.053Z" fill="#856477"/>
<path d="M284.372 390.053L285.872 379.553C300.878 363.346 305.188 337.493 305.56 318.553M284.372 390.053L285.872 390.797C286.372 393.216 287.072 398.753 285.872 401.553C284.372 405.053 225.872 416.553 197.372 409.053C196.372 407.387 194.672 402.853 195.872 398.053M284.372 390.053C253.572 400.453 212.538 399.72 195.872 398.053M195.872 398.053C196.372 396.053 194.872 392.653 184.872 395.053C184.761 395.053 184.315 395.053 183.372 395.053M80.8716 388.553C77.6716 389.353 78.5382 395.887 79.3716 399.053C76.3716 410.553 154.872 412.553 163.872 410.053C171.072 408.053 171.205 402.887 170.372 400.553C169.792 399.56 169.403 398.735 169.16 398.053M80.8716 388.553C80.4305 384.584 79.0558 376.725 76.8161 373.553M80.8716 388.553C120.472 402.153 156.23 400.553 169.16 398.053M75.8716 372.553C76.2018 372.789 76.5167 373.129 76.8161 373.553M75.8716 372.553C73.0716 370.553 75.3346 372.387 76.8161 373.553M75.8716 372.553C69.3788 363.896 58.4727 343.01 57.3737 318.553M169.16 398.053C168.227 395.439 169.446 394.921 170.372 395.053C177.581 395.053 181.478 395.053 183.372 395.053M305.56 318.553C305.683 312.251 305.371 306.715 304.872 302.553C285.672 308.153 272.205 276.553 267.872 260.053C272.205 252.72 273.172 240.353 242.372 249.553C211.572 258.753 149.872 253.387 122.872 249.553C120.872 248.053 115.872 244.153 111.872 240.553C107.872 236.953 100.872 252.387 97.8716 260.553C86.2716 300.553 66.7049 304.22 58.3716 301.053C57.3919 307.007 57.1185 312.876 57.3737 318.553M305.56 318.553C281.96 325.826 236.063 334.792 181.872 335.109M57.3737 318.553C99.6925 331.098 142.924 335.337 181.872 335.109M181.872 335.109C181.268 345.855 180.629 363.557 181.006 377.053M183.372 395.053C181.943 392.99 181.255 385.931 181.006 377.053M181.006 377.053C185.628 376.387 195.372 372.653 197.372 363.053L198.872 339.053" stroke="#42283F"/>
<path d="M313.372 176.553L300.872 160.053C292.872 160.053 256.872 227.053 239.872 260.553L246.872 274.553L262.872 271.053C260.072 258.253 295.372 202.72 313.372 176.553Z" fill="#8B6175" stroke="#3F2840"/>
<path d="M253.372 251.553C257.819 251.553 261.372 254.939 261.372 259.053C261.372 263.167 257.819 266.553 253.372 266.553C248.924 266.553 245.372 263.167 245.372 259.053C245.372 254.939 248.924 251.553 253.372 251.553Z" fill="#EEC06C" stroke="#54281E"/>
<path d="M51.8716 176.553L64.3716 160.053C72.3716 160.053 108.372 227.053 125.372 260.553L118.372 274.553L102.372 271.053C105.172 258.253 69.8716 202.72 51.8716 176.553Z" fill="#8B6175" stroke="#3F2840"/>
<path d="M111.372 251.553C115.819 251.553 119.372 254.939 119.372 259.053C119.372 263.167 115.819 266.553 111.372 266.553C106.924 266.553 103.372 263.167 103.372 259.053C103.372 254.939 106.924 251.553 111.372 251.553Z" fill="#EEC06C" stroke="#54281E"/>
<path d="M294.372 366.553C301.972 355.753 304.872 330.053 305.372 318.553L266.372 328.053C263.972 353.653 284.038 364.387 294.372 366.553Z" fill="#70A078"/>
<path d="M145.872 312.553C140.672 302.553 141.372 282.72 142.372 274.053C176.372 279.253 209.872 276.22 222.372 274.053C224.772 278.853 221.372 301.72 219.372 312.553C214.372 324.053 187.372 328.053 184.872 328.053C182.372 328.053 152.372 325.053 145.872 312.553Z" fill="#70A078"/>
<path d="M294.372 366.553C301.972 355.753 304.872 330.053 305.372 318.553L266.372 328.053C263.972 353.653 284.038 364.387 294.372 366.553Z" stroke="#4F293E"/>
<path d="M145.872 312.553C140.672 302.553 141.372 282.72 142.372 274.053C176.372 279.253 209.872 276.22 222.372 274.053C224.772 278.853 221.372 301.72 219.372 312.553C214.372 324.053 187.372 328.053 184.872 328.053C182.372 328.053 152.372 325.053 145.872 312.553Z" stroke="#4F293E"/>
<path d="M71.3716 364.053C63.7716 353.253 58.3716 331.053 57.8716 319.553L97.8716 329.053C100.272 354.653 81.7049 361.887 71.3716 364.053Z" fill="#70A078" stroke="#4F293E"/>
<defs>
<filter id="filter0_d_2_32" x="0" y="176.774" width="89.9753" height="212.897" filterUnits="userSpaceOnUse" color-interpolation-filters="sRGB">
<feFlood flood-opacity="0" result="BackgroundImageFix"/>
<feColorMatrix in="SourceAlpha" type="matrix" values="0 0 0 0 0 0 0 0 0 0 0 0 0 0 0 0 0 0 127 0" result="hardAlpha"/>
<feOffset dy="4"/>
<feGaussianBlur stdDeviation="2"/>
<feComposite in2="hardAlpha" operator="out"/>
<feColorMatrix type="matrix" values="0 0 0 0 0 0 0 0 0 0 0 0 0 0 0 0 0 0 0.25 0"/>
<feBlend mode="normal" in2="BackgroundImageFix" result="effect1_dropShadow_2_32"/>
<feBlend mode="normal" in="SourceGraphic" in2="effect1_dropShadow_2_32" result="shape"/>
</filter>
<filter id="filter1_d_2_32" x="273.268" y="176.274" width="89.9753" height="212.897" filterUnits="userSpaceOnUse" color-interpolation-filters="sRGB">
<feFlood flood-opacity="0" result="BackgroundImageFix"/>
<feColorMatrix in="SourceAlpha" type="matrix" values="0 0 0 0 0 0 0 0 0 0 0 0 0 0 0 0 0 0 127 0" result="hardAlpha"/>
<feOffset dy="4"/>
<feGaussianBlur stdDeviation="2"/>
<feComposite in2="hardAlpha" operator="out"/>
<feColorMatrix type="matrix" values="0 0 0 0 0 0 0 0 0 0 0 0 0 0 0 0 0 0 0.25 0"/>
<feBlend mode="normal" in2="BackgroundImageFix" result="effect1_dropShadow_2_32"/>
<feBlend mode="normal" in="SourceGraphic" in2="effect1_dropShadow_2_32" result="shape"/>
</filter>
</defs>
</svg>
